<?xml version="1.0" encoding="utf-8"?>
<!-- Generator: Adobe Illustrator 17.0.0, SVG Export Plug-In . SVG Version: 6.00 Build 0)  -->
<!DOCTYPE svg PUBLIC "-//W3C//DTD SVG 1.1//EN" "http://www.w3.org/Graphics/SVG/1.1/DTD/svg11.dtd">
<svg version="1.1" id="Layer_1" xmlns="http://www.w3.org/2000/svg" xmlns:xlink="http://www.w3.org/1999/xlink" x="0px" y="0px"
	 width="551.061px" height="250px" viewBox="0 0 551.061 250" enable-background="new 0 0 551.061 250" xml:space="preserve">
<g display="none">
	<g display="inline">
		<g>
			
				<path fill="none" stroke="#000000" stroke-width="1.5" stroke-linecap="round" stroke-miterlimit="10" stroke-dasharray="5,5" d="
				M210.68,47.482c86.605,30.15,181.047,27.944,267.341-3.465"/>
			<g>
				<path d="M213.566,41.962c-2.231,1.918-5.078,3.055-7.925,3.726c1.885,2.246,3.343,4.916,4.038,7.771l1.419,0.48
					c-0.718-2.782-1.84-5.367-3.548-7.605c2.723-0.764,5.261-2.137,7.459-3.883L213.566,41.962z"/>
				<path d="M216.986,43.119c-2.231,1.918-5.078,3.055-7.924,3.726c1.885,2.246,3.342,4.915,4.037,7.77l1.419,0.48
					c-0.717-2.782-1.84-5.368-3.547-7.605c2.722-0.765,5.26-2.138,7.458-3.884L216.986,43.119z"/>
			</g>
		</g>
	</g>
	<text transform="matrix(1 0 0 1 267.2448 52.4895)" display="inline" font-family="'SFUIDisplay-Regular'" font-size="19.7601">new target bitrate</text>
</g>
<g>
	<g>
		<path fill="#FFFFFF" d="M415.491,125.291c0-45.551-36.926-82.478-82.478-82.478c-14.577,0-28.261,3.796-40.144,10.432v-0.003
			c-22.293,12.421-28.747,12.421-51.041,0v0.003c-11.883-6.635-25.567-10.432-40.144-10.432c-45.551,0-82.478,36.926-82.478,82.478"
			/>
		<g>
			<path fill="none" stroke="#000000" stroke-width="2" stroke-miterlimit="10" d="M415.491,125.291
				c0-45.551-36.926-82.478-82.478-82.478c-14.577,0-28.261,3.796-40.144,10.432v-0.003c-22.293,12.421-28.747,12.421-51.041,0
				v0.003c-11.883-6.635-25.567-10.432-40.144-10.432c-42.802,0-77.989,32.604-82.08,74.331"/>
			<g>
				<path d="M119.799,115.361l3.727-1.974l0.074,0.128l-2.678,5.726c-0.571,2.017-1.142,4.033-1.713,6.05
					c-0.328-2.07-0.656-4.14-0.984-6.21l-1.98-6.003l0.069-0.119L119.799,115.361z"/>
			</g>
		</g>
	</g>
	<g>
		<path fill="#FFFFFF" d="M119.208,125.291c0,45.551,36.926,82.478,82.478,82.478c14.577,0,28.261-3.796,40.144-10.432v0.003
			c22.293-12.421,28.747-12.421,51.041,0v-0.003c11.883,6.635,25.567,10.432,40.144,10.432c45.551,0,82.478-36.927,82.478-82.478"/>
		<g>
			<path fill="none" stroke="#000000" stroke-width="2" stroke-miterlimit="10" d="M119.208,125.291
				c0,45.551,36.927,82.478,82.478,82.478c14.577,0,28.261-3.796,40.144-10.432v0.003c22.293-12.421,28.747-12.421,51.041,0v-0.003
				c11.883,6.635,25.567,10.432,40.144,10.432c42.802,0,77.989-32.604,82.08-74.331"/>
			<g>
				<path d="M414.9,135.221l-3.727,1.974l-0.074-0.128l2.678-5.726c0.571-2.017,1.142-4.033,1.713-6.05
					c0.328,2.07,0.656,4.14,0.984,6.21l1.98,6.003l-0.069,0.119L414.9,135.221z"/>
			</g>
		</g>
	</g>
	<g>
		<path d="M169.52,104.019v2.632h2.191v2.374h-2.191v5.747c0,0.913,0.451,1.354,1.407,1.354c0.279,0,0.591-0.021,0.784-0.054v2.32
			c-0.322,0.064-0.881,0.129-1.515,0.129c-2.739,0-3.813-0.924-3.813-3.233v-6.263h-1.601v-2.374h1.601v-2.632H169.52z"/>
		<path d="M173.505,106.65h3.029v2.116h0.064c0.397-1.461,1.418-2.256,2.814-2.256c0.365,0,0.688,0.043,0.913,0.118v2.771
			c-0.269-0.107-0.698-0.183-1.16-0.183c-1.59,0-2.524,0.988-2.524,2.643v6.617h-3.137V106.65z"/>
		<path d="M180.906,115.072c0-2.148,1.644-3.362,4.662-3.545l2.954-0.183v-0.784c0-1.139-0.784-1.762-2.073-1.762
			c-1.139,0-1.934,0.602-2.084,1.461h-2.868c0.086-2.256,2.127-3.813,5.081-3.813c3.04,0,5.027,1.558,5.027,3.921v8.11h-3.029
			v-1.826h-0.064c-0.645,1.235-2.105,1.966-3.62,1.966C182.614,118.617,180.906,117.188,180.906,115.072z M188.522,114.138v-0.87
			l-2.481,0.172c-1.311,0.086-2.009,0.602-2.009,1.472s0.741,1.418,1.88,1.418C187.362,116.329,188.522,115.427,188.522,114.138z"/>
		<path d="M193.711,106.65h3.029v2.116h0.064c0.677-1.493,1.88-2.288,3.695-2.288c2.621,0,4.104,1.654,4.104,4.415v7.584h-3.137
			v-6.929c0-1.568-0.73-2.46-2.213-2.46c-1.504,0-2.406,1.074-2.406,2.643v6.746h-3.137V106.65z"/>
		<path d="M211.425,106.446c2.922,0,4.866,1.493,4.909,3.749h-2.9c-0.064-0.935-0.849-1.525-2.052-1.525
			c-1.128,0-1.88,0.505-1.88,1.268c0,0.591,0.516,0.988,1.579,1.235l2.224,0.483c2.374,0.537,3.319,1.45,3.319,3.212
			c0,2.299-2.116,3.813-5.21,3.813c-3.115,0-5.07-1.504-5.231-3.781h3.062c0.15,0.999,0.956,1.558,2.256,1.558
			c1.246,0,2.009-0.483,2.009-1.257c0-0.612-0.408-0.935-1.482-1.192l-2.181-0.494c-2.224-0.505-3.373-1.654-3.373-3.384
			C206.473,107.907,208.428,106.446,211.425,106.446z"/>
		<path d="M229.944,112.559c0,3.76-1.848,6.059-4.812,6.059c-1.708,0-3.029-0.784-3.674-2.127h-0.064v5.854h-3.137V106.65h3.094
			v2.02h0.064c0.623-1.332,2.009-2.159,3.674-2.159C228.086,106.511,229.944,108.799,229.944,112.559z M226.732,112.559
			c0-2.127-1.063-3.513-2.686-3.513c-1.601,0-2.664,1.407-2.664,3.523c0,2.127,1.063,3.513,2.664,3.513
			C225.669,116.082,226.732,114.707,226.732,112.559z"/>
		<path d="M231.18,112.559c0-3.781,2.277-6.112,5.833-6.112c3.566,0,5.833,2.32,5.833,6.112c0,3.835-2.245,6.123-5.833,6.123
			S231.18,116.383,231.18,112.559z M239.655,112.559c0-2.331-0.999-3.706-2.643-3.706c-1.654,0-2.653,1.386-2.653,3.706
			c0,2.353,0.999,3.706,2.653,3.706S239.655,114.911,239.655,112.559z"/>
		<path d="M244.521,106.65h3.029v2.116h0.064c0.397-1.461,1.418-2.256,2.814-2.256c0.365,0,0.688,0.043,0.913,0.118v2.771
			c-0.269-0.107-0.698-0.183-1.16-0.183c-1.59,0-2.524,0.988-2.524,2.643v6.617h-3.137V106.65z"/>
		<path d="M256.649,104.019v2.632h2.191v2.374h-2.191v5.747c0,0.913,0.451,1.354,1.407,1.354c0.279,0,0.591-0.021,0.784-0.054v2.32
			c-0.322,0.064-0.881,0.129-1.515,0.129c-2.739,0-3.813-0.924-3.813-3.233v-6.263h-1.601v-2.374h1.601v-2.632H256.649z"/>
		<path d="M277.049,112.559c0,3.76-1.848,6.059-4.812,6.059c-1.708,0-3.029-0.784-3.674-2.127h-0.064v5.854h-3.137V106.65h3.094
			v2.02h0.064c0.623-1.332,2.009-2.159,3.674-2.159C275.19,106.511,277.049,108.799,277.049,112.559z M273.837,112.559
			c0-2.127-1.063-3.513-2.686-3.513c-1.601,0-2.664,1.407-2.664,3.523c0,2.127,1.063,3.513,2.664,3.513
			C272.773,116.082,273.837,114.707,273.837,112.559z"/>
		<path d="M278.725,106.65h3.029v2.116h0.064c0.397-1.461,1.418-2.256,2.814-2.256c0.365,0,0.688,0.043,0.913,0.118v2.771
			c-0.269-0.107-0.698-0.183-1.16-0.183c-1.59,0-2.524,0.988-2.524,2.643v6.617h-3.137V106.65z"/>
		<path d="M286.062,112.559c0-3.781,2.277-6.112,5.833-6.112c3.566,0,5.833,2.32,5.833,6.112c0,3.835-2.245,6.123-5.833,6.123
			S286.062,116.383,286.062,112.559z M294.537,112.559c0-2.331-0.999-3.706-2.643-3.706c-1.654,0-2.653,1.386-2.653,3.706
			c0,2.353,0.999,3.706,2.653,3.706S294.537,114.911,294.537,112.559z"/>
		<path d="M303.378,104.019v2.632h2.191v2.374h-2.191v5.747c0,0.913,0.451,1.354,1.407,1.354c0.279,0,0.591-0.021,0.784-0.054v2.32
			c-0.322,0.064-0.881,0.129-1.515,0.129c-2.739,0-3.813-0.924-3.813-3.233v-6.263h-1.601v-2.374h1.601v-2.632H303.378z"/>
		<path d="M306.762,112.559c0-3.781,2.277-6.112,5.833-6.112c3.567,0,5.833,2.32,5.833,6.112c0,3.835-2.244,6.123-5.833,6.123
			C309.007,118.682,306.762,116.383,306.762,112.559z M315.238,112.559c0-2.331-1-3.706-2.643-3.706
			c-1.654,0-2.653,1.386-2.653,3.706c0,2.353,0.999,3.706,2.653,3.706C314.25,116.265,315.238,114.911,315.238,112.559z"/>
		<path d="M327.87,111.012c-0.172-1.225-1.031-2.095-2.396-2.095c-1.611,0-2.632,1.375-2.632,3.642c0,2.31,1.021,3.642,2.643,3.642
			c1.321,0,2.191-0.72,2.396-2.02h2.922c-0.183,2.75-2.245,4.501-5.35,4.501c-3.534,0-5.79-2.32-5.79-6.123
			c0-3.749,2.256-6.112,5.769-6.112c3.18,0,5.21,1.934,5.36,4.565H327.87z"/>
		<path d="M331.93,112.559c0-3.781,2.277-6.112,5.833-6.112c3.566,0,5.833,2.32,5.833,6.112c0,3.835-2.245,6.123-5.833,6.123
			S331.93,116.383,331.93,112.559z M340.406,112.559c0-2.331-0.999-3.706-2.643-3.706c-1.654,0-2.653,1.386-2.653,3.706
			c0,2.353,0.999,3.706,2.653,3.706S340.406,114.911,340.406,112.559z"/>
		<path d="M345.358,102.235h3.137v16.242h-3.137V102.235z"/>
		<path d="M365.295,117.188c-1.149,0.988-2.922,1.568-4.802,1.568c-3.287,0-5.403-1.708-5.403-4.34c0-1.762,0.892-3.04,2.868-4.125
			c0.161-0.086,0.655-0.354,0.698-0.376c-1.396-1.439-1.923-2.406-1.923-3.545c0-2.073,1.869-3.599,4.394-3.599
			c2.535,0,4.318,1.461,4.318,3.545c0,1.59-0.988,2.857-3.137,4.028l2.943,3.18c0.376-0.666,0.559-1.601,0.559-2.933v-0.816h2.61
			v0.999c0,1.891-0.473,3.523-1.311,4.684l2.89,3.019h-3.513L365.295,117.188z M358.022,114.17c0,1.386,1.128,2.31,2.793,2.31
			c1.117,0,2.234-0.419,2.836-1.074l-3.556-3.846c-0.118,0.054-0.333,0.172-0.43,0.226
			C358.495,112.526,358.022,113.214,358.022,114.17z M362.835,106.532c0-0.988-0.688-1.676-1.697-1.676
			c-0.999,0-1.719,0.709-1.719,1.676c0,0.72,0.387,1.332,1.439,2.353C362.266,108.154,362.835,107.467,362.835,106.532z"/>
		<path d="M212.773,144.877h-3.523l-4.104-11.827h3.352l2.514,9.023h0.064l2.503-9.023h3.276L212.773,144.877z"/>
		<path d="M217.94,130.118c0-0.935,0.763-1.633,1.687-1.633c0.935,0,1.697,0.698,1.697,1.633s-0.763,1.644-1.697,1.644
			C218.703,131.761,217.94,131.052,217.94,130.118z M218.058,133.05h3.137v11.827h-3.137V133.05z"/>
		<path d="M222.935,138.948c0-3.706,1.912-6.037,4.855-6.037c1.708,0,3.029,0.849,3.62,2.159h0.064v-6.435h3.137v16.242h-3.094
			v-2.02h-0.054c-0.58,1.3-1.944,2.159-3.685,2.159C224.836,145.017,222.935,142.675,222.935,138.948z M226.147,138.959
			c0,2.17,1.042,3.523,2.675,3.523c1.622,0,2.675-1.375,2.675-3.513s-1.053-3.523-2.675-3.523
			C227.189,135.446,226.147,136.81,226.147,138.959z"/>
		<path d="M247.513,141.268c-0.344,2.288-2.481,3.813-5.36,3.813c-3.599,0-5.801-2.31-5.801-6.069s2.213-6.166,5.683-6.166
			c3.405,0,5.575,2.277,5.575,5.876v0.967h-8.164v0.193c0,1.708,1.106,2.857,2.761,2.857c1.182,0,2.116-0.559,2.417-1.472H247.513z
			 M239.478,137.745h5.103c-0.054-1.547-1.063-2.557-2.514-2.557C240.638,135.188,239.585,136.23,239.478,137.745z"/>
		<path d="M248.856,138.959c0-3.781,2.277-6.112,5.833-6.112c3.566,0,5.833,2.32,5.833,6.112c0,3.835-2.245,6.123-5.833,6.123
			C251.101,145.082,248.856,142.783,248.856,138.959z M257.332,138.959c0-2.331-0.999-3.706-2.643-3.706
			c-1.654,0-2.653,1.386-2.653,3.706c0,2.353,0.999,3.706,2.653,3.706C256.343,142.665,257.332,141.311,257.332,138.959z"/>
		<path d="M274.691,137.412c-0.172-1.225-1.031-2.095-2.396-2.095c-1.611,0-2.632,1.375-2.632,3.642c0,2.31,1.021,3.642,2.643,3.642
			c1.321,0,2.191-0.72,2.396-2.02h2.922c-0.183,2.75-2.245,4.501-5.35,4.501c-3.534,0-5.79-2.32-5.79-6.123
			c0-3.749,2.256-6.112,5.769-6.112c3.18,0,5.21,1.934,5.36,4.565H274.691z"/>
		<path d="M278.751,138.959c0-3.781,2.277-6.112,5.833-6.112c3.566,0,5.833,2.32,5.833,6.112c0,3.835-2.245,6.123-5.833,6.123
			S278.751,142.783,278.751,138.959z M287.227,138.959c0-2.331-0.999-3.706-2.643-3.706c-1.654,0-2.653,1.386-2.653,3.706
			c0,2.353,0.999,3.706,2.653,3.706S287.227,141.311,287.227,138.959z"/>
		<path d="M291.653,138.948c0-3.706,1.912-6.037,4.855-6.037c1.708,0,3.029,0.849,3.62,2.159h0.064v-6.435h3.137v16.242h-3.094
			v-2.02h-0.054c-0.58,1.3-1.944,2.159-3.685,2.159C293.554,145.017,291.653,142.675,291.653,138.948z M294.865,138.959
			c0,2.17,1.042,3.523,2.675,3.523c1.622,0,2.675-1.375,2.675-3.513s-1.053-3.523-2.675-3.523
			C295.907,135.446,294.865,136.81,294.865,138.959z"/>
		<path d="M316.231,141.268c-0.344,2.288-2.481,3.813-5.36,3.813c-3.599,0-5.801-2.31-5.801-6.069s2.213-6.166,5.683-6.166
			c3.405,0,5.575,2.277,5.575,5.876v0.967h-8.164v0.193c0,1.708,1.106,2.857,2.761,2.857c1.182,0,2.116-0.559,2.417-1.472H316.231z
			 M308.196,137.745h5.103c-0.054-1.547-1.063-2.557-2.514-2.557C309.356,135.188,308.303,136.23,308.196,137.745z"/>
		<path d="M325.781,137.412c-0.172-1.225-1.031-2.095-2.396-2.095c-1.611,0-2.632,1.375-2.632,3.642c0,2.31,1.021,3.642,2.643,3.642
			c1.321,0,2.191-0.72,2.396-2.02h2.922c-0.183,2.75-2.245,4.501-5.35,4.501c-3.534,0-5.79-2.32-5.79-6.123
			c0-3.749,2.256-6.112,5.769-6.112c3.18,0,5.21,1.934,5.36,4.565H325.781z"/>
	</g>
	<g>
		<g>
			<g>
				<path fill="#010101" d="M86.436,43.797c0-11.439-9.305-20.753-20.753-20.753S44.93,32.359,44.93,43.797
					c0,10.084,7.22,18.503,16.768,20.364v1.988h-4.794c-3.673,0-5.953,3.352-5.593,6.382h28.743
					c0.283-3.966-2.631-6.382-5.593-6.382h-4.784v-1.988C79.217,62.3,86.436,53.882,86.436,43.797z M74.462,67.746
					c1.929,0,3.547,1.374,3.917,3.196H52.987c0.37-1.822,1.988-3.196,3.907-3.196H74.462z M63.286,66.158v-1.734
					c0.789,0.088,1.588,0.146,2.397,0.146s1.608-0.049,2.397-0.146v1.734H63.286z M65.683,62.962
					c-10.562,0-19.155-8.594-19.155-19.165c0-10.562,8.594-19.155,19.155-19.155s19.155,8.594,19.155,19.155
					S76.245,62.962,65.683,62.962z"/>
			</g>
		</g>
		<g>
			<g>
				<path fill="#010101" d="M65.683,32.622c-6.168,0-11.176,5.018-11.176,11.176c0,6.168,5.018,11.176,11.176,11.176
					c6.168,0,11.176-5.008,11.176-11.176S71.841,32.622,65.683,32.622z M65.683,53.375c-5.281,0-9.578-4.297-9.578-9.578
					s4.297-9.578,9.578-9.578s9.578,4.297,9.578,9.578S70.964,53.375,65.683,53.375z"/>
			</g>
		</g>
		<g>
			<g>
				<path fill="#010101" d="M57.703,43.797h1.598c0-3.517,2.865-6.382,6.382-6.382v-1.598
					C61.279,35.817,57.703,39.403,57.703,43.797z"/>
			</g>
		</g>
		<g>
			<g>
				<path fill="#010101" d="M65.683,39.802c-2.202,0-3.995,1.793-3.995,3.995c0,2.202,1.793,3.995,3.995,3.995
					s3.995-1.793,3.995-3.995C69.678,41.595,67.885,39.802,65.683,39.802z M65.683,46.194c-1.325,0-2.397-1.072-2.397-2.397
					s1.072-2.397,2.397-2.397c1.325,0,2.397,1.072,2.397,2.397S67.008,46.194,65.683,46.194z"/>
			</g>
		</g>
		<g>
			<g>
				<rect x="64.884" y="27.838" fill="#010101" width="1.598" height="1.598"/>
			</g>
		</g>
	</g>
	<g>
		<g>
			<path fill="none" stroke="#000000" stroke-miterlimit="10" d="M65.683,71.766c0,0.502,0.007,1.002,0.021,1.5"/>
			<path fill="none" stroke="#000000" stroke-miterlimit="10" stroke-dasharray="3.0792,3.0792" d="M65.876,76.341
				c2.122,25.063,21.514,45.206,46.231,48.483"/>
			<path fill="none" stroke="#000000" stroke-miterlimit="10" d="M113.639,125.005c0.496,0.051,0.994,0.096,1.494,0.133"/>
			<g>
				<path d="M114.241,125.04l-1.003-1.854l0.064-0.038l2.875,1.313c1.011,0.276,2.022,0.553,3.032,0.83
					c-1.034,0.173-2.067,0.346-3.1,0.52l-2.993,1.017l-0.06-0.034L114.241,125.04z"/>
			</g>
		</g>
	</g>
	<g>
		<path fill="#010101" d="M494.967,197.504c-0.654-11.134-9.833-20.035-20.897-20.035c-6.718,0-13.223,3.295-17.254,8.67
			c-0.093-0.048-0.191-0.082-0.285-0.126c-0.245-0.119-0.494-0.231-0.747-0.333c-0.141-0.056-0.282-0.106-0.424-0.156
			c-0.251-0.088-0.506-0.166-0.766-0.236c-0.142-0.038-0.283-0.078-0.427-0.11c-0.278-0.063-0.563-0.111-0.85-0.155
			c-0.125-0.019-0.247-0.043-0.374-0.057c-0.411-0.046-0.826-0.074-1.248-0.074c-6.14,0-11.134,4.994-11.134,11.134
			c0,0.157,0.01,0.312,0.02,0.466v0.005c-5.145,2.806-8.68,8.682-8.68,14.565c0,8.763,7.129,15.893,15.891,15.893h30.32
			c0.129,0,0.256-0.007,0.385-0.017l0.077-0.01l0.166,0.01c0.126,0.01,0.252,0.017,0.382,0.017h12.128
			c8.205,0,14.881-6.676,14.881-14.881C506.131,205.285,501.396,199.194,494.967,197.504z M491.25,224.482h-12.128
			c-0.073,0-0.144-0.006-0.215-0.011l-0.335-0.014l-0.245,0.014c-0.071,0.005-0.142,0.011-0.214,0.011h-30.32
			c-7.398,0-13.417-6.019-13.417-13.418c0-5.139,3.347-10.474,7.959-12.685l0.701-0.335v-0.779c0-0.157,0.01-0.317,0.019-0.478
			l0.011-0.198l-0.015-0.26c-0.007-0.1-0.015-0.2-0.015-0.302c0-4.774,3.886-8.66,8.66-8.66c0.382,0,0.76,0.033,1.134,0.083
			c0.096,0.012,0.193,0.028,0.288,0.045c0.33,0.054,0.656,0.126,0.976,0.219c0.043,0.012,0.088,0.021,0.131,0.033
			c0.353,0.108,0.697,0.244,1.033,0.397c0.088,0.04,0.173,0.083,0.26,0.125c0.297,0.147,0.588,0.308,0.868,0.49
			c2.384,1.544,3.969,4.222,3.969,7.268c0,0.684,0.553,1.237,1.237,1.237c0.684,0,1.237-0.553,1.237-1.237
			c0-3.407-1.542-6.457-3.959-8.501c3.547-4.639,9.388-7.583,15.199-7.583c9.582,0,17.539,7.59,18.369,17.182
			c-1.264-0.089-3.157-0.135-5.051,0.153c-0.676,0.103-1.139,0.734-1.037,1.409c0.093,0.612,0.62,1.052,1.221,1.052
			c0.062,0,0.125-0.005,0.187-0.015c2.755-0.417,5.627-0.026,5.795-0.002c5.76,1.095,10.103,6.401,10.103,12.353
			C503.657,218.916,498.091,224.482,491.25,224.482z"/>
	</g>
	<g>
		<g>
			<path fill="none" stroke="#000000" stroke-miterlimit="10" d="M468.863,174.741c-0.038-0.5-0.082-0.998-0.133-1.494"/>
			<path fill="none" stroke="#000000" stroke-miterlimit="10" stroke-dasharray="3.0792,3.0792" d="M468.325,170.194
				c-3.965-24.485-24.541-43.403-49.792-44.818"/>
			<path fill="none" stroke="#000000" stroke-miterlimit="10" d="M416.991,125.312c-0.498-0.014-0.998-0.021-1.5-0.021"/>
			<g>
				<path d="M468.765,173.849l-1.854-1.003l-0.038,0.064l1.313,2.875c0.276,1.011,0.553,2.022,0.829,3.032
					c0.173-1.034,0.346-2.067,0.52-3.1l1.017-2.993l-0.034-0.06L468.765,173.849z"/>
			</g>
		</g>
	</g>
</g>
</svg>
