<?xml version="1.0" encoding="utf-8"?>
<!-- Generator: Adobe Illustrator 17.0.0, SVG Export Plug-In . SVG Version: 6.00 Build 0)  -->
<!DOCTYPE svg PUBLIC "-//W3C//DTD SVG 1.1//EN" "http://www.w3.org/Graphics/SVG/1.1/DTD/svg11.dtd">
<svg version="1.1" id="Layer_1" xmlns="http://www.w3.org/2000/svg" xmlns:xlink="http://www.w3.org/1999/xlink" x="0px" y="0px"
	 width="700px" height="250px" viewBox="0 0 700 250" enable-background="new 0 0 700 250" xml:space="preserve">
<rect x="0" y="0" fill="none" width="700" height="250"/>
<g>
	<path fill="#FFFFFF" d="M259.815,123.056c0,45.472-36.862,82.334-82.334,82.334s-82.334-36.862-82.334-82.334"/>
	<g>
		<path fill="none" stroke="#000000" stroke-width="2" stroke-miterlimit="10" d="M259.417,131.203
			c-4.091,41.648-39.213,74.188-81.936,74.188c-45.472,0-82.334-36.862-82.334-82.334"/>
		<g>
			<path d="M259.223,132.986l3.466,2.402l0.089-0.118l-1.98-6.003c-0.328-2.07-0.655-4.14-0.983-6.21
				c-0.571,2.016-1.142,4.033-1.714,6.049l-2.679,5.726l0.054,0.126L259.223,132.986z"/>
		</g>
	</g>
</g>
<g>
	<path fill="#FFFFFF" d="M95.147,123.056c0-45.472,36.862-82.334,82.334-82.334s82.334,36.862,82.334,82.334"/>
	<g>
		<path fill="none" stroke="#000000" stroke-width="2" stroke-miterlimit="10" d="M95.545,114.91
			c4.091-41.648,39.213-74.188,81.936-74.188c45.472,0,82.334,36.862,82.334,82.334"/>
		<g>
			<path d="M95.739,113.127l-3.466-2.402l-0.089,0.118l1.98,6.003c0.328,2.07,0.655,4.14,0.983,6.21
				c0.571-2.016,1.142-4.033,1.714-6.049l2.679-5.726l-0.054-0.126L95.739,113.127z"/>
		</g>
	</g>
</g>
<g>
	<path fill="#FFFFFF" d="M423.847,121.41c0-45.472,36.862-82.334,82.334-82.334s82.334,36.862,82.334,82.334"/>
	<g>
		<path fill="none" stroke="#000000" stroke-width="2" stroke-miterlimit="10" d="M424.245,113.263
			c4.091-41.648,39.213-74.188,81.936-74.188c45.472,0,82.334,36.862,82.334,82.334"/>
		<g>
			<path d="M424.439,111.48l-3.466-2.402l-0.089,0.118l1.98,6.003c0.328,2.07,0.655,4.14,0.983,6.21
				c0.571-2.016,1.142-4.033,1.714-6.049l2.679-5.726l-0.054-0.126L424.439,111.48z"/>
		</g>
	</g>
</g>
<g>
	<path fill="#FFFFFF" d="M588.515,123.056c0,45.472-36.862,82.334-82.334,82.334s-82.334-36.862-82.334-82.334"/>
	<g>
		<path fill="none" stroke="#000000" stroke-width="2" stroke-miterlimit="10" d="M588.117,131.203
			c-4.091,41.648-39.213,74.188-81.936,74.188c-45.472,0-82.334-36.862-82.334-82.334"/>
		<g>
			<path d="M587.923,132.986l3.466,2.402l0.089-0.118l-1.98-6.003c-0.328-2.07-0.655-4.14-0.983-6.21
				c-0.571,2.016-1.142,4.033-1.714,6.049l-2.679,5.726l0.054,0.126L587.923,132.986z"/>
		</g>
	</g>
</g>
<path fill="#FFFFFF" stroke="#000000" stroke-miterlimit="10" d="M205.641,45.688"/>
<path fill="#FFFFFF" stroke="#000000" stroke-miterlimit="10" d="M205.641,200.425"/>
<g>
	<g>
		<path fill="none" stroke="#000000" stroke-width="1.5" stroke-linecap="round" stroke-miterlimit="10" stroke-dasharray="5,5" d="
			M210.68,47.482c86.605,30.15,181.047,27.944,267.341-3.465"/>
		<g>
			<path d="M213.566,41.962c-2.231,1.918-5.078,3.055-7.925,3.726c1.885,2.246,3.343,4.916,4.038,7.771l1.419,0.48
				c-0.718-2.782-1.84-5.367-3.548-7.605c2.723-0.764,5.261-2.137,7.459-3.883L213.566,41.962z"/>
			<path d="M216.986,43.119c-2.231,1.918-5.078,3.055-7.924,3.726c1.885,2.246,3.342,4.915,4.037,7.77l1.419,0.48
				c-0.717-2.782-1.84-5.368-3.547-7.605c2.722-0.765,5.26-2.138,7.458-3.884L216.986,43.119z"/>
		</g>
	</g>
</g>
<g>
	<path d="M291.408,39.75v2.344h2.025v1.389h-2.025v6.239c0,0.955,0.405,1.389,1.292,1.389c0.203,0,0.607-0.029,0.724-0.048v1.417
		c-0.203,0.048-0.685,0.087-1.08,0.087c-1.881,0-2.614-0.781-2.614-2.777v-6.307h-1.446v-1.389h1.446V39.75H291.408z"/>
	<path d="M294.728,49.529c0-1.784,1.369-2.835,3.896-2.99l2.912-0.173v-0.868c0-1.292-0.849-2.006-2.382-2.006
		c-1.206,0-2.102,0.617-2.305,1.601h-1.611c0.048-1.755,1.755-3.096,3.935-3.096c2.459,0,4.041,1.312,4.041,3.356v7.136h-1.591
		v-1.803h-0.039c-0.588,1.157-1.89,1.9-3.346,1.9C296.126,52.586,294.728,51.371,294.728,49.529z M301.536,48.536v-0.839
		l-2.719,0.174c-1.562,0.096-2.373,0.665-2.373,1.668c0,0.965,0.839,1.591,2.151,1.591C300.292,51.13,301.536,50.031,301.536,48.536
		z"/>
	<path d="M305.448,42.094h1.581v1.688h0.039c0.309-1.09,1.302-1.784,2.517-1.784c0.299,0,0.55,0.029,0.694,0.058v1.649
		c-0.135-0.048-0.501-0.097-0.916-0.097c-1.35,0-2.237,0.984-2.237,2.45v6.432h-1.678V42.094z"/>
	<path d="M311.159,53.338h1.746c0.251,0.868,1.283,1.408,2.652,1.408c1.794,0,2.932-0.936,2.932-2.411v-1.63h-0.039
		c-0.656,1.128-1.88,1.784-3.336,1.784c-2.633,0-4.397-2.093-4.397-5.236c0-3.173,1.765-5.256,4.436-5.256
		c1.466,0,2.69,0.646,3.385,1.784h0.029v-1.688h1.601v10.106c0,2.488-1.784,4.002-4.706,4.002
		C313.107,56.203,311.4,55.064,311.159,53.338z M318.488,47.253c0-2.237-1.234-3.761-3.057-3.761c-1.812,0-2.999,1.485-2.999,3.761
		c0,2.266,1.187,3.742,2.999,3.742C317.254,50.995,318.488,49.481,318.488,47.253z"/>
	<path d="M331.011,49.52c-0.289,1.784-2.092,3.067-4.311,3.067c-2.922,0-4.764-2.035-4.764-5.256c0-3.221,1.852-5.333,4.687-5.333
		c2.777,0,4.513,1.958,4.513,5.102v0.656h-7.464v0.096c0,1.977,1.215,3.26,3.066,3.26c1.302,0,2.314-0.617,2.614-1.591H331.011z
		 M323.673,46.415h5.718c-0.038-1.765-1.157-2.941-2.796-2.941C324.965,43.473,323.789,44.659,323.673,46.415z"/>
	<path d="M335.135,39.75v2.344h2.025v1.389h-2.025v6.239c0,0.955,0.405,1.389,1.292,1.389c0.203,0,0.608-0.029,0.723-0.048v1.417
		c-0.202,0.048-0.685,0.087-1.08,0.087c-1.88,0-2.613-0.781-2.613-2.777v-6.307h-1.446v-1.389h1.446V39.75H335.135z"/>
	<path d="M345.478,50.735h-0.039v1.755h-1.591V37.966h1.678v5.815h0.039c0.655-1.138,1.861-1.784,3.336-1.784
		c2.614,0,4.397,2.122,4.397,5.294c0,3.182-1.783,5.294-4.436,5.294C347.349,52.586,346.153,51.93,345.478,50.735z M345.517,47.292
		c0,2.256,1.234,3.799,3.047,3.799c1.822,0,3.019-1.485,3.019-3.799c0-2.305-1.197-3.8-3.019-3.8
		C346.751,43.492,345.517,45.045,345.517,47.292z"/>
	<path d="M354.944,39.355c0-0.588,0.482-1.061,1.061-1.061c0.589,0,1.061,0.473,1.061,1.061c0,0.579-0.472,1.061-1.061,1.061
		C355.427,40.416,354.944,39.934,354.944,39.355z M355.166,42.094h1.678V52.49h-1.678V42.094z"/>
	<path d="M361.446,39.75v2.344h2.025v1.389h-2.025v6.239c0,0.955,0.405,1.389,1.293,1.389c0.202,0,0.607-0.029,0.723-0.048v1.417
		c-0.202,0.048-0.685,0.087-1.08,0.087c-1.88,0-2.613-0.781-2.613-2.777v-6.307h-1.446v-1.389h1.446V39.75H361.446z"/>
	<path d="M365.336,42.094h1.582v1.688h0.038c0.309-1.09,1.302-1.784,2.518-1.784c0.299,0,0.55,0.029,0.694,0.058v1.649
		c-0.136-0.048-0.502-0.097-0.916-0.097c-1.351,0-2.238,0.984-2.238,2.45v6.432h-1.678V42.094z"/>
	<path d="M370.932,49.529c0-1.784,1.37-2.835,3.896-2.99l2.912-0.173v-0.868c0-1.292-0.849-2.006-2.382-2.006
		c-1.205,0-2.103,0.617-2.305,1.601h-1.61c0.048-1.755,1.755-3.096,3.935-3.096c2.459,0,4.04,1.312,4.04,3.356v7.136h-1.591v-1.803
		h-0.038c-0.589,1.157-1.891,1.9-3.347,1.9C372.33,52.586,370.932,51.371,370.932,49.529z M377.74,48.536v-0.839l-2.72,0.174
		c-1.562,0.096-2.372,0.665-2.372,1.668c0,0.965,0.839,1.591,2.15,1.591C376.496,51.13,377.74,50.031,377.74,48.536z"/>
	<path d="M383.879,39.75v2.344h2.025v1.389h-2.025v6.239c0,0.955,0.405,1.389,1.293,1.389c0.202,0,0.607-0.029,0.723-0.048v1.417
		c-0.202,0.048-0.685,0.087-1.08,0.087c-1.88,0-2.613-0.781-2.613-2.777v-6.307h-1.446v-1.389h1.446V39.75H383.879z"/>
	<path d="M396.043,49.52c-0.289,1.784-2.093,3.067-4.311,3.067c-2.922,0-4.764-2.035-4.764-5.256c0-3.221,1.852-5.333,4.687-5.333
		c2.777,0,4.514,1.958,4.514,5.102v0.656h-7.465v0.096c0,1.977,1.216,3.26,3.067,3.26c1.302,0,2.314-0.617,2.613-1.591H396.043z
		 M388.704,46.415h5.719c-0.038-1.765-1.157-2.941-2.796-2.941C389.997,43.473,388.82,44.659,388.704,46.415z"/>
</g>
<g>
	<g>
		<path fill="#010101" d="M667.852,195.144c-0.653-11.115-9.816-20-20.861-20c-6.706,0-13.2,3.289-17.223,8.655
			c-0.093-0.048-0.19-0.081-0.284-0.126c-0.245-0.119-0.493-0.231-0.746-0.332c-0.141-0.056-0.282-0.106-0.424-0.156
			c-0.251-0.088-0.505-0.165-0.764-0.236c-0.142-0.038-0.283-0.078-0.426-0.11c-0.278-0.063-0.562-0.111-0.848-0.154
			c-0.125-0.019-0.247-0.043-0.373-0.057c-0.41-0.046-0.825-0.074-1.246-0.074c-6.129,0-11.115,4.986-11.115,11.115
			c0,0.157,0.01,0.311,0.02,0.466v0.005c-5.136,2.801-8.665,8.667-8.665,14.54c0,8.748,7.116,15.865,15.864,15.865h30.268
			c0.128,0,0.256-0.007,0.384-0.017l0.077-0.01l0.165,0.01c0.126,0.01,0.252,0.017,0.382,0.017h12.107
			c8.191,0,14.855-6.664,14.855-14.855C678.997,202.911,674.271,196.831,667.852,195.144z M664.142,222.074h-12.107
			c-0.073,0-0.143-0.006-0.215-0.011l-0.335-0.014l-0.245,0.014c-0.07,0.005-0.142,0.011-0.214,0.011H620.76
			c-7.385,0-13.394-6.008-13.394-13.395c0-5.13,3.341-10.456,7.945-12.663l0.7-0.335v-0.778c0-0.157,0.01-0.316,0.019-0.477
			l0.011-0.198l-0.015-0.259c-0.007-0.1-0.015-0.2-0.015-0.301c0-4.766,3.879-8.645,8.645-8.645c0.382,0,0.758,0.033,1.133,0.083
			c0.096,0.012,0.193,0.028,0.288,0.044c0.33,0.054,0.655,0.126,0.974,0.219c0.043,0.012,0.088,0.021,0.131,0.033
			c0.352,0.107,0.695,0.243,1.031,0.396c0.088,0.04,0.173,0.083,0.259,0.125c0.296,0.147,0.587,0.308,0.867,0.489
			c2.38,1.541,3.962,4.215,3.962,7.256c0,0.683,0.552,1.235,1.235,1.235c0.683,0,1.235-0.552,1.235-1.235
			c0-3.401-1.539-6.446-3.952-8.486c3.541-4.631,9.371-7.569,15.172-7.569c9.565,0,17.509,7.577,18.337,17.152
			c-1.262-0.089-3.152-0.135-5.043,0.153c-0.674,0.103-1.137,0.732-1.035,1.407c0.093,0.611,0.619,1.05,1.219,1.05
			c0.062,0,0.125-0.005,0.187-0.015c2.75-0.416,5.617-0.026,5.785-0.002c5.75,1.093,10.085,6.39,10.085,12.332
			C676.527,216.518,670.971,222.074,664.142,222.074z"/>
	</g>
	<g>
		<g>
			<path fill="none" stroke="#000000" stroke-miterlimit="10" d="M641.794,172.413c-0.038-0.5-0.082-0.998-0.134-1.494"/>
			<path fill="none" stroke="#000000" stroke-miterlimit="10" stroke-dasharray="2.9103,2.9103" d="M641.282,168.033
				c-3.691-23.214-22.332-41.447-45.747-44.52"/>
			<path fill="none" stroke="#000000" stroke-miterlimit="10" d="M594.086,123.343c-0.496-0.051-0.994-0.096-1.494-0.134"/>
			<g>
				<path d="M641.696,171.521l-1.854-1.003l-0.038,0.063l1.313,2.875c0.276,1.011,0.553,2.022,0.83,3.032
					c0.173-1.033,0.346-2.067,0.52-3.1l1.017-2.993l-0.034-0.06L641.696,171.521z"/>
			</g>
			<g>
				<path d="M593.482,123.307l1.003,1.854l-0.064,0.038l-2.875-1.313c-1.011-0.276-2.022-0.553-3.032-0.83
					c1.034-0.173,2.067-0.346,3.1-0.52l2.993-1.017l0.06,0.034L593.482,123.307z"/>
			</g>
		</g>
	</g>
</g>
<g>
	<g>
		<g>
			<g>
				<path fill="#010101" d="M62.433,41.705c0-11.419-9.289-20.717-20.717-20.717s-20.717,9.298-20.717,20.717
					c0,10.067,7.207,18.47,16.739,20.328v1.984h-4.785c-3.667,0-5.943,3.346-5.583,6.371h28.693
					c0.282-3.959-2.626-6.371-5.583-6.371h-4.776v-1.984C55.225,60.175,62.433,51.772,62.433,41.705z M50.479,65.612
					c1.926,0,3.54,1.371,3.91,3.19H29.042c0.37-1.819,1.984-3.19,3.9-3.19H50.479z M39.323,64.027v-1.731
					c0.788,0.088,1.585,0.146,2.393,0.146c0.807,0,1.605-0.049,2.393-0.146v1.731H39.323z M41.715,60.837
					c-10.543,0-19.122-8.579-19.122-19.132c0-10.543,8.579-19.122,19.122-19.122s19.122,8.579,19.122,19.122
					S52.259,60.837,41.715,60.837z"/>
			</g>
		</g>
		<g>
			<g>
				<path fill="#010101" d="M41.715,30.549c-6.157,0-11.156,5.009-11.156,11.156c0,6.157,5.009,11.156,11.156,11.156
					c6.157,0,11.156-4.999,11.156-11.156S47.863,30.549,41.715,30.549z M41.715,51.266c-5.272,0-9.561-4.289-9.561-9.561
					s4.289-9.561,9.561-9.561s9.561,4.289,9.561,9.561S46.987,51.266,41.715,51.266z"/>
			</g>
		</g>
		<g>
			<g>
				<path fill="#010101" d="M33.75,41.705h1.595c0-3.511,2.86-6.371,6.371-6.371v-1.595C37.319,33.739,33.75,37.318,33.75,41.705z"
					/>
			</g>
		</g>
		<g>
			<g>
				<path fill="#010101" d="M41.715,37.717c-2.198,0-3.988,1.79-3.988,3.988c0,2.198,1.79,3.988,3.988,3.988
					c2.198,0,3.988-1.79,3.988-3.988C45.703,39.507,43.914,37.717,41.715,37.717z M41.715,44.097c-1.323,0-2.393-1.07-2.393-2.393
					c0-1.323,1.07-2.393,2.393-2.393s2.393,1.07,2.393,2.393C44.108,43.028,43.038,44.097,41.715,44.097z"/>
			</g>
		</g>
		<g>
			<g>
				<rect x="40.918" y="25.773" fill="#010101" width="1.595" height="1.595"/>
			</g>
		</g>
	</g>
	<g>
		<g>
			<path fill="none" stroke="#000000" stroke-miterlimit="10" d="M41.715,69.625c0,0.502,0.007,1.002,0.021,1.5"/>
			<path fill="none" stroke="#000000" stroke-miterlimit="10" stroke-dasharray="3.0734,3.0734" d="M41.908,74.194
				c2.119,25.016,21.472,45.12,46.141,48.395"/>
			<path fill="none" stroke="#000000" stroke-miterlimit="10" d="M89.578,122.77c0.496,0.051,0.994,0.096,1.494,0.134"/>
			<g>
				<path d="M90.18,122.806l-1.003-1.854l0.064-0.038l2.875,1.313c1.011,0.276,2.022,0.553,3.032,0.83
					c-1.033,0.173-2.067,0.346-3.1,0.52l-2.993,1.017l-0.06-0.034L90.18,122.806z"/>
			</g>
		</g>
	</g>
	<g>
		<path fill="none" d="M41.715,69.625"/>
	</g>
</g>
<g>
	<path fill="none" d="M95.147,16.193"/>
</g>
<g>
	<path d="M159.223,116.47h-3.163l-3.684-10.618h3.009l2.256,8.101h0.058l2.247-8.101h2.941L159.223,116.47z"/>
	<path d="M163.867,103.22c0-0.839,0.685-1.466,1.514-1.466c0.839,0,1.523,0.626,1.523,1.466c0,0.839-0.685,1.475-1.523,1.475
		C164.552,104.695,163.867,104.059,163.867,103.22z M163.973,105.853h2.816v10.618h-2.816V105.853z"/>
	<path d="M168.354,111.147c0-3.327,1.716-5.42,4.358-5.42c1.534,0,2.72,0.762,3.25,1.938h0.058v-5.776h2.816v14.581h-2.777v-1.813
		h-0.048c-0.521,1.167-1.746,1.938-3.308,1.938C170.061,116.596,168.354,114.493,168.354,111.147z M171.237,111.157
		c0,1.948,0.935,3.163,2.401,3.163c1.457,0,2.401-1.234,2.401-3.153c0-1.919-0.945-3.163-2.401-3.163
		C172.172,108.003,171.237,109.228,171.237,111.157z"/>
	<path d="M190.424,113.23c-0.309,2.054-2.228,3.423-4.812,3.423c-3.23,0-5.207-2.073-5.207-5.449c0-3.375,1.986-5.535,5.101-5.535
		c3.057,0,5.005,2.044,5.005,5.275v0.868h-7.329v0.173c0,1.533,0.993,2.565,2.478,2.565c1.061,0,1.9-0.501,2.17-1.321H190.424z
		 M183.211,110.067h4.581c-0.048-1.389-0.955-2.295-2.257-2.295C184.252,107.772,183.307,108.707,183.211,110.067z"/>
	<path d="M191.635,111.157c0-3.395,2.045-5.487,5.237-5.487c3.202,0,5.236,2.083,5.236,5.487c0,3.442-2.016,5.497-5.236,5.497
		C193.651,116.653,191.635,114.59,191.635,111.157z M199.244,111.157c0-2.093-0.897-3.327-2.372-3.327
		c-1.485,0-2.382,1.244-2.382,3.327c0,2.112,0.897,3.327,2.382,3.327C198.357,114.484,199.244,113.269,199.244,111.157z"/>
	<path d="M156.955,133.48c-0.154-1.1-0.926-1.88-2.15-1.88c-1.446,0-2.362,1.234-2.362,3.269c0,2.073,0.916,3.269,2.372,3.269
		c1.186,0,1.967-0.646,2.15-1.813h2.623c-0.164,2.469-2.016,4.041-4.802,4.041c-3.173,0-5.198-2.083-5.198-5.497
		c0-3.366,2.025-5.487,5.178-5.487c2.854,0,4.677,1.736,4.812,4.099H156.955z"/>
	<path d="M160.606,134.869c0-3.395,2.044-5.487,5.236-5.487c3.202,0,5.236,2.083,5.236,5.487c0,3.443-2.016,5.497-5.236,5.497
		C162.621,140.366,160.606,138.302,160.606,134.869z M168.214,134.869c0-2.093-0.896-3.327-2.372-3.327
		c-1.485,0-2.382,1.244-2.382,3.327c0,2.112,0.896,3.327,2.382,3.327C167.327,138.196,168.214,136.981,168.214,134.869z"/>
	<path d="M172.194,134.859c0-3.327,1.716-5.419,4.358-5.419c1.534,0,2.72,0.762,3.25,1.938h0.058v-5.776h2.816v14.581h-2.777v-1.813
		h-0.048c-0.521,1.167-1.746,1.938-3.308,1.938C173.9,140.308,172.194,138.206,172.194,134.859z M175.077,134.869
		c0,1.948,0.935,3.163,2.401,3.163c1.457,0,2.401-1.234,2.401-3.154c0-1.919-0.945-3.163-2.401-3.163
		C176.012,131.715,175.077,132.94,175.077,134.869z"/>
	<path d="M194.264,136.942c-0.309,2.054-2.228,3.423-4.812,3.423c-3.23,0-5.207-2.073-5.207-5.448c0-3.375,1.986-5.536,5.101-5.536
		c3.057,0,5.005,2.044,5.005,5.275v0.868h-7.329v0.173c0,1.534,0.993,2.565,2.478,2.565c1.061,0,1.9-0.501,2.17-1.321H194.264z
		 M187.051,133.779h4.581c-0.048-1.389-0.955-2.295-2.257-2.295C188.092,131.484,187.147,132.419,187.051,133.779z"/>
	<path d="M202.843,133.48c-0.154-1.1-0.926-1.88-2.151-1.88c-1.446,0-2.363,1.234-2.363,3.269c0,2.073,0.917,3.269,2.373,3.269
		c1.186,0,1.967-0.646,2.15-1.813h2.623c-0.164,2.469-2.015,4.041-4.802,4.041c-3.173,0-5.198-2.083-5.198-5.497
		c0-3.366,2.025-5.487,5.179-5.487c2.854,0,4.677,1.736,4.812,4.099H202.843z"/>
</g>
<g>
	<path d="M469.646,103.49v2.363h1.968v2.131h-1.968v5.159c0,0.82,0.405,1.215,1.264,1.215c0.251,0,0.53-0.02,0.704-0.048v2.083
		c-0.289,0.058-0.791,0.116-1.36,0.116c-2.459,0-3.423-0.83-3.423-2.903v-5.622h-1.437v-2.131h1.437v-2.363H469.646z"/>
	<path d="M473.229,105.853h2.719v1.9h0.059c0.356-1.312,1.272-2.025,2.526-2.025c0.328,0,0.617,0.039,0.819,0.106v2.488
		c-0.241-0.096-0.627-0.164-1.041-0.164c-1.428,0-2.267,0.887-2.267,2.372v5.94h-2.815V105.853z"/>
	<path d="M479.876,113.413c0-1.929,1.476-3.018,4.186-3.182l2.652-0.164v-0.704c0-1.022-0.704-1.582-1.861-1.582
		c-1.022,0-1.736,0.54-1.871,1.312h-2.575c0.077-2.025,1.91-3.423,4.562-3.423c2.729,0,4.514,1.398,4.514,3.52v7.281h-2.72v-1.64
		h-0.058c-0.579,1.109-1.891,1.765-3.25,1.765C481.409,116.596,479.876,115.313,479.876,113.413z M486.714,112.574v-0.781
		l-2.228,0.154c-1.177,0.077-1.804,0.54-1.804,1.321s0.665,1.273,1.688,1.273C485.672,114.542,486.714,113.731,486.714,112.574z"/>
	<path d="M491.377,105.853h2.719v1.9h0.059c0.607-1.34,1.688-2.054,3.317-2.054c2.353,0,3.684,1.485,3.684,3.963v6.809h-2.816v-6.22
		c0-1.408-0.655-2.208-1.986-2.208c-1.35,0-2.16,0.965-2.16,2.373v6.056h-2.815V105.853z"/>
	<path d="M507.284,105.669c2.623,0,4.369,1.34,4.407,3.366h-2.604c-0.058-0.839-0.762-1.37-1.842-1.37
		c-1.013,0-1.688,0.453-1.688,1.138c0,0.53,0.463,0.887,1.417,1.109l1.997,0.434c2.131,0.482,2.979,1.302,2.979,2.883
		c0,2.063-1.899,3.423-4.677,3.423c-2.797,0-4.553-1.35-4.697-3.395h2.749c0.135,0.897,0.858,1.398,2.024,1.398
		c1.119,0,1.804-0.434,1.804-1.128c0-0.55-0.366-0.839-1.331-1.07l-1.957-0.443c-1.996-0.454-3.028-1.485-3.028-3.038
		C502.839,106.981,504.594,105.669,507.284,105.669z"/>
	<path d="M523.916,111.157c0,3.375-1.659,5.439-4.32,5.439c-1.533,0-2.72-0.704-3.299-1.91h-0.058v5.256h-2.815v-14.089h2.777v1.813
		h0.058c0.56-1.196,1.804-1.938,3.298-1.938C522.247,105.727,523.916,107.781,523.916,111.157z M521.032,111.157
		c0-1.91-0.955-3.153-2.411-3.153c-1.437,0-2.392,1.263-2.392,3.163c0,1.909,0.955,3.153,2.392,3.153
		C520.077,114.32,521.032,113.085,521.032,111.157z"/>
	<path d="M525.031,111.157c0-3.395,2.044-5.487,5.236-5.487c3.201,0,5.236,2.083,5.236,5.487c0,3.442-2.016,5.497-5.236,5.497
		S525.031,114.59,525.031,111.157z M532.64,111.157c0-2.093-0.896-3.327-2.372-3.327c-1.485,0-2.382,1.244-2.382,3.327
		c0,2.112,0.896,3.327,2.382,3.327S532.64,113.269,532.64,111.157z"/>
	<path d="M537.015,105.853h2.719v1.9h0.059c0.356-1.312,1.272-2.025,2.526-2.025c0.328,0,0.617,0.039,0.819,0.106v2.488
		c-0.241-0.096-0.627-0.164-1.041-0.164c-1.428,0-2.267,0.887-2.267,2.372v5.94h-2.815V105.853z"/>
	<path d="M547.905,103.49v2.363h1.968v2.131h-1.968v5.159c0,0.82,0.405,1.215,1.264,1.215c0.251,0,0.53-0.02,0.704-0.048v2.083
		c-0.289,0.058-0.791,0.116-1.359,0.116c-2.46,0-3.424-0.83-3.424-2.903v-5.622h-1.438v-2.131h1.438v-2.363H547.905z"/>
	<path d="M480.951,134.869c0,3.375-1.659,5.439-4.32,5.439c-1.533,0-2.72-0.704-3.299-1.91h-0.058v5.256h-2.815v-14.089h2.777v1.813
		h0.058c0.56-1.196,1.804-1.938,3.298-1.938C479.282,129.44,480.951,131.494,480.951,134.869z M478.067,134.869
		c0-1.91-0.955-3.154-2.411-3.154c-1.437,0-2.392,1.264-2.392,3.163c0,1.91,0.955,3.154,2.392,3.154
		C477.112,138.032,478.067,136.798,478.067,134.869z"/>
	<path d="M482.462,129.565h2.719v1.9h0.059c0.356-1.312,1.272-2.025,2.526-2.025c0.328,0,0.617,0.038,0.819,0.106v2.488
		c-0.241-0.096-0.627-0.164-1.041-0.164c-1.428,0-2.267,0.888-2.267,2.373v5.94h-2.815V129.565z"/>
	<path d="M489.052,134.869c0-3.395,2.044-5.487,5.236-5.487c3.201,0,5.236,2.083,5.236,5.487c0,3.443-2.016,5.497-5.236,5.497
		S489.052,138.302,489.052,134.869z M496.66,134.869c0-2.093-0.896-3.327-2.372-3.327c-1.485,0-2.382,1.244-2.382,3.327
		c0,2.112,0.896,3.327,2.382,3.327S496.66,136.981,496.66,134.869z"/>
	<path d="M504.603,127.203v2.362h1.968v2.131h-1.968v5.159c0,0.82,0.405,1.215,1.264,1.215c0.251,0,0.53-0.02,0.704-0.048v2.083
		c-0.289,0.058-0.791,0.116-1.359,0.116c-2.46,0-3.424-0.829-3.424-2.903v-5.622h-1.438v-2.131h1.438v-2.362H504.603z"/>
	<path d="M507.645,134.869c0-3.395,2.044-5.487,5.236-5.487c3.201,0,5.236,2.083,5.236,5.487c0,3.443-2.016,5.497-5.236,5.497
		S507.645,138.302,507.645,134.869z M515.253,134.869c0-2.093-0.896-3.327-2.372-3.327c-1.485,0-2.382,1.244-2.382,3.327
		c0,2.112,0.896,3.327,2.382,3.327S515.253,136.981,515.253,134.869z"/>
	<path d="M526.6,133.48c-0.154-1.1-0.926-1.88-2.15-1.88c-1.446,0-2.362,1.234-2.362,3.269c0,2.073,0.916,3.269,2.372,3.269
		c1.187,0,1.967-0.646,2.15-1.813h2.623c-0.164,2.469-2.016,4.041-4.803,4.041c-3.172,0-5.197-2.083-5.197-5.497
		c0-3.366,2.025-5.487,5.179-5.487c2.854,0,4.677,1.736,4.812,4.099H526.6z"/>
	<path d="M530.251,134.869c0-3.395,2.044-5.487,5.236-5.487c3.201,0,5.236,2.083,5.236,5.487c0,3.443-2.016,5.497-5.236,5.497
		S530.251,138.302,530.251,134.869z M537.859,134.869c0-2.093-0.896-3.327-2.372-3.327c-1.485,0-2.382,1.244-2.382,3.327
		c0,2.112,0.896,3.327,2.382,3.327S537.859,136.981,537.859,134.869z"/>
	<path d="M542.312,125.602h2.815v14.581h-2.815V125.602z"/>
</g>
<g>
	<g>
		<path fill="none" stroke="#000000" stroke-width="1.5" stroke-linecap="round" stroke-miterlimit="10" stroke-dasharray="5,5" d="
			M472.983,198.629c-86.605-30.211-181.048-29.613-267.342,1.796"/>
		<g>
			<path d="M470.093,204.143c2.233-1.915,5.081-3.05,7.929-3.718c-1.883-2.248-3.338-4.919-4.03-7.775l-1.418-0.481
				c0.715,2.783,1.834,5.369,3.54,7.609c-2.724,0.761-5.264,2.132-7.463,3.876L470.093,204.143z"/>
			<path d="M466.673,202.983c2.233-1.916,5.081-3.05,7.928-3.718c-1.883-2.248-3.337-4.919-4.029-7.774l-1.418-0.481
				c0.715,2.783,1.835,5.37,3.539,7.608c-2.722,0.762-5.263,2.132-7.462,3.876L466.673,202.983z"/>
		</g>
	</g>
</g>
<g>
	<path d="M260.378,217.737c-0.212-1.109-1.138-1.986-2.7-1.986c-1.812,0-3.047,1.504-3.047,3.799c0,2.363,1.253,3.8,3.066,3.8
		c1.446,0,2.411-0.675,2.7-1.929h1.649c-0.28,2.025-1.986,3.424-4.359,3.424c-2.854,0-4.764-2.025-4.764-5.295
		c0-3.191,1.899-5.294,4.745-5.294c2.575,0,4.146,1.659,4.359,3.481H260.378z"/>
	<path d="M263.152,219.549c0-3.23,1.871-5.294,4.793-5.294c2.922,0,4.792,2.063,4.792,5.294c0,3.222-1.871,5.295-4.792,5.295
		C265.022,224.844,263.152,222.771,263.152,219.549z M271.031,219.549c0-2.392-1.148-3.799-3.086-3.799
		c-1.938,0-3.086,1.417-3.086,3.799c0,2.383,1.157,3.8,3.086,3.8C269.883,223.349,271.031,221.932,271.031,219.549z"/>
	<path d="M274.507,214.352h1.582v1.688h0.038c0.492-1.109,1.601-1.784,2.951-1.784c1.408,0,2.459,0.714,2.912,1.968h0.039
		c0.588-1.234,1.812-1.968,3.269-1.968c2.054,0,3.385,1.331,3.385,3.395v7.098h-1.678v-6.712c0-1.437-0.8-2.285-2.189-2.285
		s-2.382,1.031-2.382,2.459v6.538h-1.678v-6.914c0-1.254-0.858-2.083-2.16-2.083c-1.389,0-2.411,1.09-2.411,2.546v6.451h-1.678
		V214.352z"/>
	<path d="M300.371,219.549c0,3.173-1.794,5.295-4.417,5.295c-1.476,0-2.662-0.646-3.317-1.784h-0.039v5.159h-1.678v-13.867h1.591
		v1.688h0.039c0.607-1.08,1.929-1.784,3.366-1.784C298.567,214.255,300.371,216.377,300.371,219.549z M298.654,219.549
		c0-2.295-1.215-3.799-3.047-3.799c-1.793,0-3.019,1.543-3.019,3.799c0,2.267,1.225,3.8,3.019,3.8
		C297.439,223.349,298.654,221.854,298.654,219.549z"/>
	<path d="M302.141,214.352h1.581v1.688h0.039c0.309-1.09,1.302-1.784,2.517-1.784c0.299,0,0.55,0.029,0.694,0.058v1.649
		c-0.135-0.048-0.501-0.097-0.916-0.097c-1.35,0-2.237,0.983-2.237,2.449v6.433h-1.678V214.352z"/>
	<path d="M316.484,221.778c-0.29,1.783-2.093,3.066-4.311,3.066c-2.922,0-4.764-2.035-4.764-5.256s1.852-5.333,4.687-5.333
		c2.777,0,4.513,1.958,4.513,5.102v0.655h-7.464v0.097c0,1.978,1.215,3.26,3.066,3.26c1.302,0,2.314-0.617,2.613-1.591H316.484z
		 M309.145,218.672h5.719c-0.039-1.765-1.157-2.941-2.797-2.941C310.437,215.731,309.261,216.917,309.145,218.672z"/>
	<path d="M322.053,214.265c2.112,0,3.713,1.263,3.78,2.97h-1.61c-0.106-0.974-0.955-1.581-2.228-1.581
		c-1.283,0-2.141,0.607-2.141,1.514c0,0.704,0.56,1.177,1.755,1.476l1.582,0.396c2.102,0.53,2.854,1.264,2.854,2.777
		c0,1.774-1.707,3.028-4.108,3.028c-2.237,0-3.857-1.215-4.021-3.019h1.688c0.173,1.061,1.032,1.63,2.449,1.63
		c1.418,0,2.305-0.589,2.305-1.523c0-0.733-0.434-1.119-1.62-1.428l-1.822-0.473c-1.823-0.473-2.71-1.389-2.71-2.777
		C318.206,215.5,319.797,214.265,322.053,214.265z"/>
	<path d="M331.547,214.265c2.112,0,3.713,1.263,3.78,2.97h-1.61c-0.106-0.974-0.955-1.581-2.228-1.581
		c-1.283,0-2.141,0.607-2.141,1.514c0,0.704,0.56,1.177,1.755,1.476l1.582,0.396c2.102,0.53,2.854,1.264,2.854,2.777
		c0,1.774-1.707,3.028-4.108,3.028c-2.237,0-3.857-1.215-4.021-3.019h1.688c0.173,1.061,1.032,1.63,2.449,1.63
		c1.418,0,2.305-0.589,2.305-1.523c0-0.733-0.434-1.119-1.62-1.428l-1.822-0.473c-1.823-0.473-2.71-1.389-2.71-2.777
		C327.7,215.5,329.291,214.265,331.547,214.265z"/>
	<path d="M345.931,221.778c-0.29,1.783-2.093,3.066-4.311,3.066c-2.922,0-4.764-2.035-4.764-5.256s1.852-5.333,4.687-5.333
		c2.777,0,4.513,1.958,4.513,5.102v0.655h-7.464v0.097c0,1.978,1.215,3.26,3.066,3.26c1.302,0,2.314-0.617,2.613-1.591H345.931z
		 M338.592,218.672h5.719c-0.039-1.765-1.157-2.941-2.797-2.941C339.884,215.731,338.708,216.917,338.592,218.672z"/>
	<path d="M347.315,219.549c0-3.172,1.832-5.294,4.417-5.294c1.485,0,2.681,0.646,3.317,1.784h0.039v-5.815h1.678v14.523h-1.601
		v-1.755h-0.029c-0.675,1.195-1.861,1.852-3.365,1.852C349.157,224.844,347.315,222.722,347.315,219.549z M349.032,219.549
		c0,2.305,1.215,3.8,3.039,3.8c1.803,0,3.027-1.533,3.027-3.8c0-2.256-1.225-3.799-3.027-3.799
		C350.247,215.751,349.032,217.254,349.032,219.549z"/>
	<path d="M364.422,215.741h-1.446v-1.389h1.446v-0.965c0-1.919,0.839-2.777,2.768-2.777c0.328,0,0.617,0.029,0.936,0.087v1.389
		c-0.222-0.048-0.521-0.077-0.781-0.077c-0.867,0-1.234,0.405-1.244,1.379v0.965h2.025v1.389H366.1v9.007h-1.678V215.741z"/>
	<path d="M369.941,214.352h1.582v1.688h0.038c0.309-1.09,1.302-1.784,2.518-1.784c0.299,0,0.55,0.029,0.694,0.058v1.649
		c-0.136-0.048-0.502-0.097-0.916-0.097c-1.351,0-2.238,0.983-2.238,2.449v6.433h-1.678V214.352z"/>
	<path d="M375.537,221.787c0-1.784,1.37-2.835,3.896-2.989l2.912-0.174v-0.867c0-1.293-0.849-2.006-2.382-2.006
		c-1.205,0-2.103,0.617-2.305,1.601h-1.61c0.048-1.755,1.755-3.096,3.935-3.096c2.459,0,4.04,1.312,4.04,3.356v7.136h-1.591v-1.804
		h-0.038c-0.589,1.157-1.891,1.9-3.347,1.9C376.936,224.844,375.537,223.629,375.537,221.787z M382.346,220.793v-0.839l-2.72,0.174
		c-1.562,0.097-2.372,0.665-2.372,1.668c0,0.965,0.839,1.592,2.15,1.592C381.102,223.388,382.346,222.289,382.346,220.793z"/>
	<path d="M386.257,214.352h1.582v1.688h0.038c0.492-1.109,1.602-1.784,2.951-1.784c1.408,0,2.459,0.714,2.912,1.968h0.039
		c0.588-1.234,1.812-1.968,3.269-1.968c2.055,0,3.386,1.331,3.386,3.395v7.098h-1.679v-6.712c0-1.437-0.8-2.285-2.188-2.285
		s-2.383,1.031-2.383,2.459v6.538h-1.678v-6.914c0-1.254-0.858-2.083-2.16-2.083c-1.389,0-2.41,1.09-2.41,2.546v6.451h-1.679
		V214.352z"/>
	<path d="M411.232,221.778c-0.289,1.783-2.093,3.066-4.311,3.066c-2.922,0-4.764-2.035-4.764-5.256s1.852-5.333,4.687-5.333
		c2.777,0,4.514,1.958,4.514,5.102v0.655h-7.465v0.097c0,1.978,1.216,3.26,3.067,3.26c1.302,0,2.314-0.617,2.613-1.591H411.232z
		 M403.894,218.672h5.719c-0.038-1.765-1.157-2.941-2.796-2.941C405.187,215.731,404.01,216.917,403.894,218.672z"/>
	<path d="M416.803,214.265c2.111,0,3.713,1.263,3.78,2.97h-1.61c-0.106-0.974-0.955-1.581-2.229-1.581
		c-1.282,0-2.141,0.607-2.141,1.514c0,0.704,0.56,1.177,1.755,1.476l1.582,0.396c2.103,0.53,2.854,1.264,2.854,2.777
		c0,1.774-1.707,3.028-4.108,3.028c-2.237,0-3.857-1.215-4.021-3.019h1.688c0.174,1.061,1.032,1.63,2.45,1.63
		c1.417,0,2.305-0.589,2.305-1.523c0-0.733-0.435-1.119-1.62-1.428l-1.823-0.473c-1.822-0.473-2.709-1.389-2.709-2.777
		C412.955,215.5,414.546,214.265,416.803,214.265z"/>
</g>
<g>
	<g>
		<defs>
			<path id="SVGID_1_" d="M315.555,188.317c0,6.366-5.161,11.527-11.527,11.527h-18.125c-6.366,0-11.527-5.161-11.527-11.527
				v-18.125c0-6.366,5.161-11.527,11.527-11.527h18.125c6.366,0,11.527,5.161,11.527,11.527V188.317z"/>
		</defs>
		<clipPath id="SVGID_2_">
			<use xlink:href="#SVGID_1_"  overflow="visible"/>
		</clipPath>
		<g clip-path="url(#SVGID_2_)">
			<defs>
				<path id="SVGID_3_" d="M258.773,197.505v-36.499c0-0.981,0.795-1.777,1.777-1.777h68.832c0.981,0,1.777,0.795,1.777,1.777
					v36.499c0,0.981-0.795,1.777-1.777,1.777H260.55C259.569,199.281,258.773,198.486,258.773,197.505z"/>
			</defs>
			<clipPath id="SVGID_4_">
				<use xlink:href="#SVGID_3_"  overflow="visible"/>
			</clipPath>
			<g clip-path="url(#SVGID_4_)">
				<defs>
					<rect id="SVGID_5_" x="258.267" y="157.822" width="73.399" height="43.176"/>
				</defs>
				<clipPath id="SVGID_6_">
					<use xlink:href="#SVGID_5_"  overflow="visible"/>
				</clipPath>
				<g clip-path="url(#SVGID_6_)" enable-background="new    ">
					<g>
						<defs>
							<rect id="SVGID_7_" x="258.267" y="157.822" width="73.399" height="43.176"/>
						</defs>
						<clipPath id="SVGID_8_">
							<use xlink:href="#SVGID_7_"  overflow="visible"/>
						</clipPath>
						<g clip-path="url(#SVGID_8_)">
							<defs>
								<rect id="SVGID_9_" x="258.267" y="157.822" width="73.399" height="43.176"/>
							</defs>
							<clipPath id="SVGID_10_">
								<use xlink:href="#SVGID_9_"  overflow="visible"/>
							</clipPath>
							<circle clip-path="url(#SVGID_10_)" fill="#A8DCE0" cx="294.966" cy="179.255" r="44.212"/>
							<path clip-path="url(#SVGID_10_)" fill="#CAE9E8" d="M326.031,147.803c-2.539,0.912-4.469,3.1-5.013,5.793
								c-0.053-0.001-0.104-0.008-0.156-0.008c-4.186,0-7.729,2.747-8.93,6.536c-0.642-0.171-1.304-0.291-1.999-0.291
								c-4.312,0-7.807,3.495-7.807,7.807l4.42,13.906c0,0,25.615,1.926,26.141,1.835c0.247-0.043,3.288-3.015,6.439-6.205
								C338.594,165.698,333.686,155.365,326.031,147.803z"/>
							<path clip-path="url(#SVGID_10_)" fill="#E2F2ED" d="M303.098,167.919c0.008-0.168,0.025-0.333,0.025-0.503
								c0-5.682-4.606-10.287-10.287-10.287c-0.457,0-0.903,0.04-1.344,0.098c-2.147-4.404-6.654-7.446-11.883-7.446
								c-5.325,0-9.903,3.153-12,7.689c-1.998-2.024-4.772-3.28-7.841-3.28c-0.432,0-0.855,0.031-1.274,0.08
								c-4.88,7.109-7.741,15.712-7.741,24.986c0,0.278,0.016,0.551,0.021,0.828c1.179,0.447,2.698,0.715,4.658,0.693
								c10.527-0.117,42.973-3.486,43.575-3.388c0.602,0.099,9.492,1.786,9.492,1.786c0.325-0.919,0.502-1.909,0.502-2.94
								C309.002,172.386,306.534,169.124,303.098,167.919z"/>
							<path clip-path="url(#SVGID_10_)" fill="#97CB5E" d="M251.884,169.34c-0.731,3.189-1.13,6.505-1.13,9.915
								c0,24.418,19.794,44.212,44.212,44.212c24.418,0,44.212-19.794,44.212-44.212c0-2.623-0.242-5.189-0.68-7.686
								c-7.961,0.344-8.273,6.283-18.24,6.283l-14.064,0.163c-3.43,0-18.054-11.555-27.442-11.555
								C269.524,166.46,263.076,169.245,251.884,169.34z"/>
							<path clip-path="url(#SVGID_10_)" fill="#71BF64" d="M309.002,184.324c1.93-6.824-7.193,1.247-7.544,1.948
								c-0.261,0.523-12.008,23.822-17.985,35.676c3.666,0.985,7.517,1.518,11.494,1.518c9.928,0,19.091-3.273,26.471-8.798
								l2.302-10.774C320.23,196.448,307.072,191.148,309.002,184.324z"/>
							<path clip-path="url(#SVGID_10_)" fill="#71BF64" d="M257.971,203.453l35.647-6.42l5.39-17.413
								c-9.071,1.623-19.844,5.716-33.165,1.926c-4.376-1.245-10.994-1.926-15.045-0.58
								C251.113,189.25,253.706,196.946,257.971,203.453z"/>
							<path clip-path="url(#SVGID_10_)" fill="#FFF0C7" d="M278.123,214.519c-0.787,1.029-1.867,2.625-2.944,4.271
								c5.062,2.538,10.676,4.13,16.617,4.551c9.888-7.088,15.352-37.896,18.583-41.795
								C310.38,181.546,280.404,211.537,278.123,214.519z"/>
							<path clip-path="url(#SVGID_10_)" fill="#656565" d="M288.365,207.326c-0.337,0-0.674-0.12-0.943-0.364
								c-0.574-0.52-0.618-1.408-0.097-1.982c1.069-1.179,2.116-2.51,3.199-4.069c0.441-0.637,1.314-0.794,1.954-0.351
								c0.636,0.442,0.794,1.317,0.351,1.953c-1.154,1.658-2.274,3.082-3.424,4.351C289.129,207.17,288.748,207.326,288.365,207.326
								z"/>
							<path clip-path="url(#SVGID_10_)" fill="#656565" d="M294.377,198.905c-0.245,0-0.495-0.064-0.72-0.199
								c-0.665-0.399-0.881-1.261-0.483-1.926c0.891-1.488,1.738-2.982,2.559-4.431c1.095-1.933,2.13-3.758,3.184-5.424
								c0.414-0.655,1.282-0.851,1.937-0.436c0.654,0.415,0.85,1.282,0.435,1.937c-1.017,1.608-2.035,3.405-3.113,5.306
								c-0.832,1.469-1.69,2.983-2.595,4.49C295.319,198.661,294.854,198.905,294.377,198.905z"/>
							<path clip-path="url(#SVGID_10_)" fill="#656565" d="M278.124,205.299c-0.552,0-1.077-0.33-1.299-0.874
								c-0.293-0.718,0.051-1.537,0.769-1.83c2.492-1.018,4.725-2.365,6.634-4.005c0.588-0.504,1.472-0.439,1.979,0.149
								c0.504,0.588,0.437,1.474-0.151,1.979c-2.138,1.838-4.629,3.344-7.402,4.475C278.48,205.266,278.3,205.299,278.124,205.299z"
								/>
							<path clip-path="url(#SVGID_10_)" fill="#B4D781" d="M305.713,177.933c-4.113-0.834-17.939-11.473-26.96-11.473
								c-9.023,0-15.4,2.655-26.138,2.863c1.205,0.059,3.02-0.036,5.605-0.333C290.021,165.336,285.142,177.933,305.713,177.933z"/>
							<path clip-path="url(#SVGID_10_)" fill="#FFF0C7" d="M253.74,195.226c1.353,3.49,3.135,6.764,5.283,9.759l25.415-4.755
								l15.664-18.636l-1.096-1.973C289.583,182.689,273.49,196.814,253.74,195.226z"/>
							<path clip-path="url(#SVGID_10_)" fill="#5AB9E8" d="M320.209,177.852l-14.014,0.162c-0.134,0-0.314-0.047-0.482-0.081
								c-17.244,1.424-21.545,22.162-49.638,22.365c5.187,9.567,13.805,16.996,24.199,20.658
								C305.195,207.992,300.509,177.875,320.209,177.852z"/>
							<path clip-path="url(#SVGID_10_)" fill="#43AC5F" d="M270.123,187.762c-0.049-0.95-0.819-1.71-1.78-1.71
								c-0.809,0-1.468,0.544-1.694,1.279c-0.311-1.06-1.28-1.838-2.44-1.838c-1.127,0-2.072,0.734-2.412,1.747
								c-0.315-0.689-0.88-1.238-1.584-1.524c-0.295-1.334-1.481-2.334-2.905-2.334c-1.186,0-2.202,0.699-2.681,1.702
								c-0.337-0.106-0.689-0.179-1.061-0.179c-0.88,0-1.676,0.331-2.298,0.86c0.335,2.263,0.829,4.472,1.493,6.61
								c8.887,0.412,19.534-2.218,24.662-5.283C277.422,187.091,274.155,187.624,270.123,187.762z"/>
							<path clip-path="url(#SVGID_10_)" fill="#43AC5F" d="M333.706,200.565c-1.556-1.957-3.952-3.215-6.647-3.215
								c-4.69,0-8.493,3.802-8.493,8.493c0,0.095,0.011,0.188,0.014,0.282c-1.48,0.32-2.803,1.063-3.832,2.1
								c-0.976-0.411-2.049-0.639-3.174-0.639c-4.522,0-8.187,3.666-8.187,8.188c-2.863,0-5.183,2.321-5.183,5.183
								c0,0.845,0.221,1.631,0.58,2.335C313.853,222.002,326.762,213.163,333.706,200.565z"/>
							<path clip-path="url(#SVGID_10_)" fill="#7ACDE9" d="M291.677,187.675c-5.806,7.049-3.749,11.452,1.102,6.843
								c8.513-8.088,18.961-16.324,24.877-16.637l-11.461,0.132C301.032,178.858,297.241,180.922,291.677,187.675z"/>
							<path clip-path="url(#SVGID_10_)" fill="#3C9BD6" d="M304.65,189.619c-2.539,4.827-17.075,23.353-34.676,26.089
								c3.163,2.171,6.617,3.95,10.3,5.247C295.068,213.261,299.428,199.521,304.65,189.619z"/>
							<path clip-path="url(#SVGID_10_)" fill="#3C9BD6" d="M304.663,189.595c0.031-0.058,0.062-0.113,0.093-0.17h-0.001
								C304.729,189.475,304.692,189.54,304.663,189.595z"/>
							<path clip-path="url(#SVGID_10_)" fill="#3C9BD6" d="M292.86,183.24c-9.015,6.594-17.001,16.915-36.785,17.059
								c0.712,1.314,1.495,2.582,2.332,3.811C275.433,203.817,286.292,188.324,292.86,183.24z"/>
							<path clip-path="url(#SVGID_10_)" fill="#B4D781" d="M338.498,171.569c-7.961,0.344-8.273,6.283-18.24,6.283l-0.57,0.007
								c2.026,0.798,4.49,1.325,7.121,0.87c7.869-1.361,10.903-1.282,12.344-0.545C339.097,175.933,338.877,173.724,338.498,171.569
								z"/>
						</g>
					</g>
				</g>
			</g>
		</g>
	</g>
</g>
<g>
	<defs>
		<path id="SVGID_11_" d="M363.01,185.473c0,6.366-5.161,11.527-11.527,11.527h-18.125c-6.366,0-11.527-5.161-11.527-11.527v-18.125
			c0-6.366,5.161-11.527,11.527-11.527h18.125c6.366,0,11.527,5.161,11.527,11.527V185.473z"/>
	</defs>
	<clipPath id="SVGID_12_">
		<use xlink:href="#SVGID_11_"  overflow="visible"/>
	</clipPath>
	<g clip-path="url(#SVGID_12_)">
		<defs>
			<path id="SVGID_13_" d="M306.228,194.661v-36.499c0-0.981,0.795-1.777,1.777-1.777h68.832c0.981,0,1.777,0.795,1.777,1.777
				v36.499c0,0.981-0.795,1.777-1.777,1.777h-68.832C307.023,196.437,306.228,195.642,306.228,194.661z"/>
		</defs>
		<clipPath id="SVGID_14_">
			<use xlink:href="#SVGID_13_"  overflow="visible"/>
		</clipPath>
		<g clip-path="url(#SVGID_14_)">
			<defs>
				<rect id="SVGID_15_" x="305.721" y="154.978" width="73.399" height="43.176"/>
			</defs>
			<clipPath id="SVGID_16_">
				<use xlink:href="#SVGID_15_"  overflow="visible"/>
			</clipPath>
			<g clip-path="url(#SVGID_16_)" enable-background="new    ">
				<g>
					<defs>
						<rect id="SVGID_17_" x="305.721" y="154.978" width="73.399" height="43.176"/>
					</defs>
					<clipPath id="SVGID_18_">
						<use xlink:href="#SVGID_17_"  overflow="visible"/>
					</clipPath>
					<g clip-path="url(#SVGID_18_)">
						<defs>
							<rect id="SVGID_19_" x="305.721" y="154.978" width="73.399" height="43.176"/>
						</defs>
						<clipPath id="SVGID_20_">
							<use xlink:href="#SVGID_19_"  overflow="visible"/>
						</clipPath>
						<circle clip-path="url(#SVGID_20_)" fill="#A8DCE0" cx="342.42" cy="176.411" r="44.212"/>
						<path clip-path="url(#SVGID_20_)" fill="#CAE9E8" d="M373.485,144.959c-2.539,0.912-4.469,3.1-5.013,5.793
							c-0.053-0.001-0.104-0.008-0.156-0.008c-4.186,0-7.729,2.747-8.93,6.536c-0.642-0.171-1.304-0.291-1.999-0.291
							c-4.312,0-7.807,3.495-7.807,7.807l4.42,13.906c0,0,25.615,1.926,26.141,1.835c0.247-0.043,3.288-3.015,6.439-6.205
							C386.048,162.854,381.14,152.521,373.485,144.959z"/>
						<path clip-path="url(#SVGID_20_)" fill="#E2F2ED" d="M350.552,165.075c0.008-0.168,0.025-0.333,0.025-0.503
							c0-5.682-4.606-10.287-10.287-10.287c-0.457,0-0.903,0.04-1.344,0.098c-2.147-4.404-6.654-7.446-11.883-7.446
							c-5.325,0-9.903,3.153-12,7.689c-1.998-2.024-4.772-3.28-7.841-3.28c-0.432,0-0.855,0.031-1.274,0.08
							c-4.88,7.109-7.741,15.712-7.741,24.986c0,0.278,0.016,0.551,0.021,0.828c1.179,0.447,2.698,0.715,4.658,0.693
							c10.527-0.117,42.973-3.486,43.575-3.388c0.602,0.099,9.492,1.786,9.492,1.786c0.325-0.919,0.502-1.909,0.502-2.94
							C356.456,169.542,353.988,166.28,350.552,165.075z"/>
						<path clip-path="url(#SVGID_20_)" fill="#97CB5E" d="M299.339,166.496c-0.731,3.189-1.13,6.505-1.13,9.915
							c0,24.418,19.794,44.212,44.212,44.212s44.212-19.794,44.212-44.212c0-2.623-0.242-5.189-0.68-7.686
							c-7.961,0.344-8.273,6.283-18.24,6.283l-14.064,0.163c-3.43,0-18.054-11.555-27.442-11.555
							C316.979,163.616,310.53,166.401,299.339,166.496z"/>
						<path clip-path="url(#SVGID_20_)" fill="#71BF64" d="M356.456,181.48c1.93-6.824-7.193,1.247-7.544,1.948
							c-0.261,0.523-12.008,23.822-17.985,35.676c3.666,0.985,7.517,1.518,11.494,1.518c9.928,0,19.091-3.273,26.471-8.798
							l2.302-10.774C367.684,193.604,354.526,188.304,356.456,181.48z"/>
						<path clip-path="url(#SVGID_20_)" fill="#71BF64" d="M305.425,200.609l35.647-6.42l5.39-17.413
							c-9.071,1.623-19.844,5.716-33.165,1.926c-4.376-1.245-10.994-1.926-15.045-0.58
							C298.568,186.406,301.16,194.102,305.425,200.609z"/>
						<path clip-path="url(#SVGID_20_)" fill="#FFF0C7" d="M325.578,211.675c-0.787,1.029-1.867,2.625-2.944,4.271
							c5.062,2.538,10.676,4.13,16.617,4.551c9.888-7.088,15.352-37.896,18.583-41.795
							C357.834,178.702,327.859,208.693,325.578,211.675z"/>
						<path clip-path="url(#SVGID_20_)" fill="#656565" d="M335.819,204.482c-0.337,0-0.674-0.12-0.943-0.364
							c-0.574-0.52-0.618-1.408-0.097-1.982c1.069-1.179,2.116-2.51,3.199-4.069c0.441-0.637,1.314-0.794,1.954-0.351
							c0.636,0.442,0.794,1.317,0.351,1.953c-1.154,1.658-2.274,3.082-3.424,4.351C336.583,204.326,336.202,204.482,335.819,204.482
							z"/>
						<path clip-path="url(#SVGID_20_)" fill="#656565" d="M341.831,196.061c-0.245,0-0.495-0.064-0.72-0.199
							c-0.665-0.399-0.881-1.261-0.483-1.926c0.891-1.488,1.738-2.982,2.559-4.431c1.095-1.933,2.13-3.758,3.184-5.424
							c0.414-0.655,1.282-0.851,1.937-0.436c0.654,0.415,0.85,1.282,0.435,1.937c-1.017,1.608-2.035,3.405-3.113,5.306
							c-0.832,1.469-1.69,2.983-2.595,4.49C342.773,195.817,342.308,196.061,341.831,196.061z"/>
						<path clip-path="url(#SVGID_20_)" fill="#656565" d="M325.578,202.455c-0.552,0-1.077-0.33-1.299-0.874
							c-0.293-0.718,0.051-1.537,0.769-1.83c2.492-1.018,4.725-2.365,6.634-4.005c0.588-0.504,1.472-0.439,1.979,0.149
							c0.504,0.588,0.437,1.474-0.151,1.979c-2.138,1.838-4.629,3.344-7.402,4.475C325.934,202.422,325.755,202.455,325.578,202.455
							z"/>
						<path clip-path="url(#SVGID_20_)" fill="#B4D781" d="M353.167,175.089c-4.113-0.834-17.939-11.473-26.96-11.473
							c-9.023,0-15.4,2.655-26.138,2.863c1.205,0.059,3.02-0.036,5.605-0.333C337.475,162.492,332.596,175.089,353.167,175.089z"/>
						<path clip-path="url(#SVGID_20_)" fill="#FFF0C7" d="M301.195,192.382c1.353,3.49,3.135,6.764,5.284,9.759l25.415-4.755
							l15.664-18.636l-1.096-1.973C337.037,179.845,320.944,193.97,301.195,192.382z"/>
						<path clip-path="url(#SVGID_20_)" fill="#5AB9E8" d="M367.663,175.008l-14.014,0.162c-0.134,0-0.314-0.047-0.482-0.081
							c-17.244,1.424-21.545,22.162-49.638,22.365c5.187,9.567,13.805,16.996,24.199,20.658
							C352.65,205.148,347.963,175.031,367.663,175.008z"/>
						<path clip-path="url(#SVGID_20_)" fill="#43AC5F" d="M317.577,184.918c-0.049-0.95-0.819-1.71-1.78-1.71
							c-0.809,0-1.468,0.544-1.694,1.279c-0.311-1.06-1.28-1.838-2.44-1.838c-1.127,0-2.072,0.734-2.412,1.747
							c-0.315-0.689-0.88-1.238-1.584-1.524c-0.295-1.334-1.481-2.334-2.905-2.334c-1.186,0-2.202,0.699-2.681,1.702
							c-0.337-0.106-0.689-0.179-1.061-0.179c-0.88,0-1.676,0.331-2.298,0.86c0.335,2.263,0.829,4.472,1.493,6.61
							c8.887,0.412,19.534-2.218,24.662-5.283C324.876,184.247,321.61,184.781,317.577,184.918z"/>
						<path clip-path="url(#SVGID_20_)" fill="#43AC5F" d="M381.16,197.721c-1.556-1.957-3.952-3.215-6.647-3.215
							c-4.69,0-8.493,3.802-8.493,8.493c0,0.095,0.011,0.188,0.014,0.282c-1.48,0.32-2.803,1.063-3.832,2.1
							c-0.976-0.411-2.049-0.639-3.174-0.639c-4.522,0-8.187,3.666-8.187,8.188c-2.863,0-5.183,2.321-5.183,5.183
							c0,0.845,0.221,1.631,0.58,2.335C361.307,219.158,374.216,210.319,381.16,197.721z"/>
						<path clip-path="url(#SVGID_20_)" fill="#7ACDE9" d="M339.131,184.831c-5.806,7.049-3.749,11.452,1.102,6.843
							c8.513-8.088,18.961-16.324,24.877-16.637l-11.461,0.132C348.486,176.014,344.695,178.078,339.131,184.831z"/>
						<path clip-path="url(#SVGID_20_)" fill="#3C9BD6" d="M352.104,186.775c-2.539,4.827-17.075,23.353-34.676,26.089
							c3.163,2.171,6.617,3.95,10.3,5.247C342.522,210.417,346.883,196.677,352.104,186.775z"/>
						<path clip-path="url(#SVGID_20_)" fill="#3C9BD6" d="M352.117,186.751c0.031-0.058,0.062-0.113,0.093-0.17h-0.001
							C352.183,186.631,352.146,186.696,352.117,186.751z"/>
						<path clip-path="url(#SVGID_20_)" fill="#3C9BD6" d="M340.314,180.396c-9.015,6.594-17.001,16.915-36.785,17.059
							c0.712,1.314,1.495,2.582,2.332,3.811C322.888,200.973,333.746,185.48,340.314,180.396z"/>
						<path clip-path="url(#SVGID_20_)" fill="#B4D781" d="M385.953,168.725c-7.961,0.344-8.273,6.283-18.24,6.283l-0.57,0.007
							c2.026,0.798,4.49,1.325,7.121,0.87c7.869-1.361,10.903-1.282,12.344-0.545C386.552,173.089,386.331,170.88,385.953,168.725z"
							/>
					</g>
				</g>
			</g>
		</g>
	</g>
</g>
<g>
	<defs>
		<path id="SVGID_21_" d="M410.464,188.317c0,6.366-5.161,11.527-11.527,11.527h-18.125c-6.366,0-11.527-5.161-11.527-11.527
			v-18.125c0-6.366,5.161-11.527,11.527-11.527h18.125c6.366,0,11.527,5.161,11.527,11.527V188.317z"/>
	</defs>
	<clipPath id="SVGID_22_">
		<use xlink:href="#SVGID_21_"  overflow="visible"/>
	</clipPath>
	<g clip-path="url(#SVGID_22_)">
		<defs>
			<path id="SVGID_23_" d="M353.682,197.505v-36.499c0-0.981,0.795-1.777,1.777-1.777h68.832c0.981,0,1.777,0.795,1.777,1.777
				v36.499c0,0.981-0.795,1.777-1.777,1.777h-68.832C354.477,199.281,353.682,198.486,353.682,197.505z"/>
		</defs>
		<clipPath id="SVGID_24_">
			<use xlink:href="#SVGID_23_"  overflow="visible"/>
		</clipPath>
		<g clip-path="url(#SVGID_24_)">
			<defs>
				<rect id="SVGID_25_" x="353.175" y="157.822" width="73.399" height="43.176"/>
			</defs>
			<clipPath id="SVGID_26_">
				<use xlink:href="#SVGID_25_"  overflow="visible"/>
			</clipPath>
			<g clip-path="url(#SVGID_26_)" enable-background="new    ">
				<g>
					<defs>
						<rect id="SVGID_27_" x="353.175" y="157.822" width="73.399" height="43.176"/>
					</defs>
					<clipPath id="SVGID_28_">
						<use xlink:href="#SVGID_27_"  overflow="visible"/>
					</clipPath>
					<g clip-path="url(#SVGID_28_)">
						<defs>
							<rect id="SVGID_29_" x="353.175" y="157.822" width="73.399" height="43.176"/>
						</defs>
						<clipPath id="SVGID_30_">
							<use xlink:href="#SVGID_29_"  overflow="visible"/>
						</clipPath>
						<circle clip-path="url(#SVGID_30_)" fill="#A8DCE0" cx="389.875" cy="179.255" r="44.212"/>
						<path clip-path="url(#SVGID_30_)" fill="#CAE9E8" d="M420.939,147.803c-2.539,0.912-4.469,3.1-5.013,5.793
							c-0.053-0.001-0.104-0.008-0.156-0.008c-4.186,0-7.729,2.747-8.93,6.536c-0.642-0.171-1.304-0.291-1.999-0.291
							c-4.312,0-7.807,3.495-7.807,7.807l4.42,13.906c0,0,25.615,1.926,26.141,1.835c0.247-0.043,3.288-3.015,6.439-6.205
							C433.502,165.698,428.594,155.365,420.939,147.803z"/>
						<path clip-path="url(#SVGID_30_)" fill="#E2F2ED" d="M398.006,167.919c0.008-0.168,0.025-0.333,0.025-0.503
							c0-5.682-4.606-10.287-10.287-10.287c-0.457,0-0.903,0.04-1.344,0.098c-2.147-4.404-6.654-7.446-11.883-7.446
							c-5.325,0-9.903,3.153-12,7.689c-1.998-2.024-4.772-3.28-7.841-3.28c-0.432,0-0.855,0.031-1.274,0.08
							c-4.88,7.109-7.741,15.712-7.741,24.986c0,0.278,0.016,0.551,0.021,0.828c1.179,0.447,2.698,0.715,4.658,0.693
							c10.527-0.117,42.973-3.486,43.575-3.388c0.602,0.099,9.492,1.786,9.492,1.786c0.325-0.919,0.502-1.909,0.502-2.94
							C403.91,172.386,401.442,169.124,398.006,167.919z"/>
						<path clip-path="url(#SVGID_30_)" fill="#97CB5E" d="M346.793,169.34c-0.731,3.189-1.13,6.505-1.13,9.915
							c0,24.418,19.794,44.212,44.212,44.212s44.212-19.794,44.212-44.212c0-2.623-0.242-5.189-0.68-7.686
							c-7.961,0.344-8.273,6.283-18.24,6.283l-14.064,0.163c-3.43,0-18.054-11.555-27.442-11.555
							C364.433,166.46,357.984,169.245,346.793,169.34z"/>
						<path clip-path="url(#SVGID_30_)" fill="#71BF64" d="M403.91,184.324c1.93-6.824-7.193,1.247-7.544,1.948
							c-0.261,0.523-12.008,23.822-17.985,35.676c3.666,0.985,7.517,1.518,11.494,1.518c9.928,0,19.091-3.273,26.471-8.798
							l2.302-10.774C415.139,196.448,401.98,191.148,403.91,184.324z"/>
						<path clip-path="url(#SVGID_30_)" fill="#71BF64" d="M352.879,203.453l35.647-6.42l5.39-17.413
							c-9.071,1.623-19.844,5.716-33.165,1.926c-4.376-1.245-10.994-1.926-15.045-0.58
							C346.022,189.25,348.614,196.946,352.879,203.453z"/>
						<path clip-path="url(#SVGID_30_)" fill="#FFF0C7" d="M373.032,214.519c-0.787,1.029-1.867,2.625-2.944,4.271
							c5.062,2.538,10.676,4.13,16.617,4.551c9.888-7.088,15.352-37.896,18.583-41.795
							C405.288,181.546,375.313,211.537,373.032,214.519z"/>
						<path clip-path="url(#SVGID_30_)" fill="#656565" d="M383.274,207.326c-0.337,0-0.674-0.12-0.943-0.364
							c-0.574-0.52-0.618-1.408-0.097-1.982c1.069-1.179,2.116-2.51,3.199-4.069c0.441-0.637,1.314-0.794,1.954-0.351
							c0.636,0.442,0.794,1.317,0.351,1.953c-1.154,1.658-2.274,3.082-3.424,4.351C384.037,207.17,383.656,207.326,383.274,207.326z
							"/>
						<path clip-path="url(#SVGID_30_)" fill="#656565" d="M389.285,198.905c-0.245,0-0.495-0.064-0.72-0.199
							c-0.665-0.399-0.881-1.261-0.483-1.926c0.891-1.488,1.738-2.982,2.559-4.431c1.095-1.933,2.13-3.758,3.184-5.424
							c0.414-0.655,1.282-0.851,1.937-0.436c0.654,0.415,0.85,1.282,0.435,1.937c-1.017,1.608-2.035,3.405-3.113,5.306
							c-0.832,1.469-1.69,2.983-2.595,4.49C390.227,198.661,389.762,198.905,389.285,198.905z"/>
						<path clip-path="url(#SVGID_30_)" fill="#656565" d="M373.032,205.299c-0.552,0-1.077-0.33-1.299-0.874
							c-0.293-0.718,0.051-1.537,0.769-1.83c2.492-1.018,4.725-2.365,6.634-4.005c0.588-0.504,1.472-0.439,1.979,0.149
							c0.504,0.588,0.437,1.474-0.151,1.979c-2.138,1.838-4.629,3.344-7.402,4.475C373.388,205.266,373.209,205.299,373.032,205.299
							z"/>
						<path clip-path="url(#SVGID_30_)" fill="#B4D781" d="M400.621,177.933c-4.113-0.834-17.939-11.473-26.96-11.473
							c-9.023,0-15.4,2.655-26.138,2.863c1.205,0.059,3.02-0.036,5.605-0.333C384.93,165.336,380.05,177.933,400.621,177.933z"/>
						<path clip-path="url(#SVGID_30_)" fill="#FFF0C7" d="M348.649,195.226c1.353,3.49,3.135,6.764,5.284,9.759l25.415-4.755
							l15.664-18.636l-1.096-1.973C384.491,182.689,368.398,196.814,348.649,195.226z"/>
						<path clip-path="url(#SVGID_30_)" fill="#5AB9E8" d="M415.117,177.852l-14.014,0.162c-0.134,0-0.314-0.047-0.482-0.081
							c-17.244,1.424-21.545,22.162-49.638,22.365c5.187,9.567,13.805,16.996,24.199,20.658
							C400.104,207.992,395.418,177.875,415.117,177.852z"/>
						<path clip-path="url(#SVGID_30_)" fill="#43AC5F" d="M365.031,187.762c-0.049-0.95-0.819-1.71-1.78-1.71
							c-0.809,0-1.468,0.544-1.694,1.279c-0.311-1.06-1.28-1.838-2.44-1.838c-1.127,0-2.072,0.734-2.412,1.747
							c-0.315-0.689-0.88-1.238-1.584-1.524c-0.295-1.334-1.481-2.334-2.905-2.334c-1.186,0-2.202,0.699-2.681,1.702
							c-0.337-0.106-0.689-0.179-1.061-0.179c-0.88,0-1.676,0.331-2.298,0.86c0.335,2.263,0.829,4.472,1.493,6.61
							c8.887,0.412,19.534-2.218,24.662-5.283C372.33,187.091,369.064,187.624,365.031,187.762z"/>
						<path clip-path="url(#SVGID_30_)" fill="#43AC5F" d="M428.615,200.565c-1.556-1.957-3.952-3.215-6.647-3.215
							c-4.69,0-8.493,3.802-8.493,8.493c0,0.095,0.011,0.188,0.014,0.282c-1.48,0.32-2.803,1.063-3.832,2.1
							c-0.976-0.411-2.049-0.639-3.174-0.639c-4.522,0-8.187,3.666-8.187,8.188c-2.863,0-5.183,2.321-5.183,5.183
							c0,0.845,0.221,1.631,0.58,2.335C408.761,222.002,421.67,213.163,428.615,200.565z"/>
						<path clip-path="url(#SVGID_30_)" fill="#7ACDE9" d="M386.586,187.675c-5.806,7.049-3.749,11.452,1.102,6.843
							c8.513-8.088,18.961-16.324,24.877-16.637l-11.461,0.132C395.941,178.858,392.149,180.922,386.586,187.675z"/>
						<path clip-path="url(#SVGID_30_)" fill="#3C9BD6" d="M399.558,189.619c-2.539,4.827-17.075,23.353-34.676,26.089
							c3.163,2.171,6.617,3.95,10.3,5.247C389.976,213.261,394.337,199.521,399.558,189.619z"/>
						<path clip-path="url(#SVGID_30_)" fill="#3C9BD6" d="M399.572,189.595c0.031-0.058,0.062-0.113,0.093-0.17h-0.001
							C399.638,189.475,399.6,189.54,399.572,189.595z"/>
						<path clip-path="url(#SVGID_30_)" fill="#3C9BD6" d="M387.768,183.24c-9.015,6.594-17.001,16.915-36.785,17.059
							c0.712,1.314,1.495,2.582,2.332,3.811C370.342,203.817,381.2,188.324,387.768,183.24z"/>
						<path clip-path="url(#SVGID_30_)" fill="#B4D781" d="M433.407,171.569c-7.961,0.344-8.273,6.283-18.24,6.283l-0.57,0.007
							c2.026,0.798,4.49,1.325,7.121,0.87c7.869-1.361,10.903-1.282,12.344-0.545C434.006,175.933,433.785,173.724,433.407,171.569z
							"/>
					</g>
				</g>
			</g>
		</g>
	</g>
</g>
</svg>
